<svg viewBox="0 0 868 675" width="200px" height="300px" version="1.1">
    <g id="2—Member">
        <g id="g—member-1" transform="translate(-312.000000, -135.000000)" fill="#000000">
            <g id="Group" transform="translate(305.000000, 71.000000)">
                <path d="M315.94402,442.432726 L315.399969,442.432726 L441.172002,225 L570.564325,448.689911 L570.669553,448.689911 L721,709 L420.782407,708.830162 L420.780168,708.825693 L417.083756,708.827927 L412.684332,708.825693 L412.68881,708.830162 L162,709 L315.94402,442.432726 Z M117.926074,785.120909 L136.823436,752.375209 L178.878012,752.346141 L440.998881,752.167264 L703.119749,752.346141 L720.450166,752.357321 L720.450166,752.375209 L882,752.375209 L881.59931,751.77597 L659.731031,367.313056 L659.666114,367.422618 L484.32716,64.064843 L434.816162,64.064843 L657.351512,449.071097 L657.420905,449.071097 L807.726787,709.527421 L769.941017,709.527421 L616.024446,442.810397 L615.930429,442.810397 L397.104263,64.2191245 L397.016961,64 L174.481611,449.006254 L175.124059,449.006254 L0,752.473591 L24.7845996,795.285603 L247.053569,410.125068 L246.760326,409.617504 L396.999053,149.693339 L415.916562,182.427859 L261.79181,449.071097 L262.360387,449.071097 L43.7961245,827.818887 L43.6483839,828 L222.528635,827.877022 L440.998881,827.727212 L659.469127,827.877022 L838.349378,828 L838.203875,827.818887 L863.1004,785.120909 L117.926074,785.120909 Z" id="Fill-6"></path>
            </g>
        </g>
    </g>
</svg>
